# xmcd
#
# Track frame offsets:
#	150
#	19447
#	36869
#	54847
#	68751
#	87293
#	104926
#	124266
#	141692
#	159694
#	173647
#	192175
#	221177
#
# Disc length: 2964 seconds
#
# Revision: 0
# Processed by: cddbd v1.5.2PL0 Copyright (c) Steve Scherf et al.
# Submitted via: audiograbber 1.83.01
#
DISCID=c80b920d
DTITLE=Various Artist - CB20558 Hot Hits Vol. 558
DYEAR=1900
DGENRE=Country
TTITLE0=Jessica Andrews - Good Time (Vocals)
TTITLE1=LeAnn Rimes - We Can (Vocals)
TTITLE2=Ashley Gearing - Can You Hear Me When I Talk To You? (Vocals)
TTITLE3=Ennis Sisters - It's Not About You (Vocals)
TTITLE4=Rosanne Cash - Rules Of Travel (Vocals)
TTITLE5=Rebecca Lynn Howard - What A Shame (Vocals
TTITLE6=Jessica Andrews - Good Time
TTITLE7=LeAnn Rimes - We Can
TTITLE8=Ashley Gearing - Can You Hear Me When I Talk To You?
TTITLE9=Ennis Sisters - It's Not About You
TTITLE10=rosanne Cash - Rules Of Travel
TTITLE11=Rebecca Lynn Howard - What A Shame
TTITLE12=None - None
EXTD=
EXTT0=
EXTT1=
EXTT2=
EXTT3=
EXTT4=
EXTT5=
EXTT6=
EXTT7=
EXTT8=
EXTT9=
EXTT10=
EXTT11=
EXTT12=
PLAYORDER=
